<?xml version="1.0" encoding="utf-8"?>
<!-- Generator: Adobe Illustrator 19.0.0, SVG Export Plug-In . SVG Version: 6.00 Build 0)  -->
<svg version="1.1" xmlns="http://www.w3.org/2000/svg" xmlns:xlink="http://www.w3.org/1999/xlink" x="0px" y="0px"
	 viewBox="0 0 32 32" style="enable-background:new 0 0 32 32;" xml:space="preserve">
	
	<!-- This is here to box the icon such that it becomes an overlay icon -->
	<rect x="-32" y="-32" width="64" height="64" fill="none" stroke="white" opacity="0"/>
	
<style type="text/css">
	.st0{display:none;}
	.st1{display:inline;}
	.st2{fill:none;}
	.st3{fill:#FFFFFF;}
	.st4{display:inline;fill:#1D70B7;}
	.st5{fill:#1FB55C;}
</style>
<g id="Text" class="st0">
	<g id="XMLID_2_" class="st1">
		<rect id="XMLID_31_" x="2.5" y="4.8" class="st2" width="27" height="22.3"/>
		<path id="XMLID_4_" class="st3" d="M10.1,21.5l-6.6-5.5l6.6-5.5l1.5,1.5l-4.8,4l4.8,4L10.1,21.5z"/>
		<path id="XMLID_17_" class="st3" d="M13.5,23.3h-2.3L18,7.4h2.3L13.5,23.3z"/>
		<path id="XMLID_29_" class="st3" d="M21.9,10.4l6.6,5.5l-6.6,5.5l-1.5-1.5l4.8-4l-4.8-4L21.9,10.4z"/>
	</g>
</g>
<g id="Half_Circle_1" class="st0">
	<path id="XMLID_7_" class="st4" d="M27.3,4.7C24.4,1.8,20.4,0,16,0C7.2,0,0,7.2,0,16c0,4.4,1.8,8.4,4.7,11.3L27.3,4.7z"/>
</g>
<g id="Half_Circle_2" class="st0">
	<path id="XMLID_8_" class="st4" d="M4.7,27.3C7.6,30.2,11.6,32,16,32c8.8,0,16-7.2,16-16c0-4.4-1.8-8.4-4.7-11.3L4.7,27.3z"/>
</g>
<g id="Circle">
	<circle id="XMLID_1_" class="st5" cx="16" cy="16" r="16"/>
	<g id="XMLID_3_">
	</g>
	<g id="XMLID_6_">
	</g>
	<g id="XMLID_32_">
	</g>
	<g id="XMLID_33_">
	</g>
	<g id="XMLID_34_">
	</g>
	<g id="XMLID_35_">
	</g>
</g>
</svg>
